<?xml version="1.0" encoding="UTF-8" standalone="no"?>
<!-- Generator: Adobe Illustrator 22.1.0, SVG Export Plug-In . SVG Version: 6.00 Build 0)  -->

<svg
   xmlns:dc="http://purl.org/dc/elements/1.1/"
   xmlns:cc="http://creativecommons.org/ns#"
   xmlns:rdf="http://www.w3.org/1999/02/22-rdf-syntax-ns#"
   xmlns:svg="http://www.w3.org/2000/svg"
   xmlns="http://www.w3.org/2000/svg"
   xmlns:sodipodi="http://sodipodi.sourceforge.net/DTD/sodipodi-0.dtd"
   xmlns:inkscape="http://www.inkscape.org/namespaces/inkscape"
   version="1.1"
   x="0px"
   y="0px"
   viewBox="0 0 192.29999 170.80001"
   xml:space="preserve"
   id="svg3779"
   sodipodi:docname="Logo_du_Ministère_du_travail_(2020).svg"
   width="192.3"
   height="170.8"
   inkscape:version="0.92.5 (2060ec1f9f, 2020-04-08)"><metadata
   id="metadata3785"><rdf:RDF><cc:Work
       rdf:about=""><dc:format>image/svg+xml</dc:format><dc:type
         rdf:resource="http://purl.org/dc/dcmitype/StillImage" /><dc:title></dc:title></cc:Work></rdf:RDF></metadata><defs
   id="defs3783" /><sodipodi:namedview
   pagecolor="#ffffff"
   bordercolor="#666666"
   borderopacity="1"
   objecttolerance="10"
   gridtolerance="10"
   guidetolerance="10"
   inkscape:pageopacity="0"
   inkscape:pageshadow="2"
   inkscape:window-width="3368"
   inkscape:window-height="1376"
   id="namedview3781"
   showgrid="false"
   fit-margin-top="0"
   fit-margin-left="0"
   fit-margin-right="0"
   fit-margin-bottom="0"
   inkscape:zoom="4.8659627"
   inkscape:cx="59.055599"
   inkscape:cy="85.400002"
   inkscape:window-x="72"
   inkscape:window-y="27"
   inkscape:window-maximized="1"
   inkscape:current-layer="svg3779" />
<style
   type="text/css"
   id="style3769">
	.st0{fill:#FFFFFF;}
	.st1{fill:#000091;}
	.st2{fill:#E1000F;}
	.st3{fill:#9C9B9B;}
</style>
<g
   id="Calque_1"
   inkscape:export-xdpi="96"
   inkscape:export-ydpi="96"
   transform="translate(-37.7,-37.7)">
	<path
   id="DEVISE_REPUBLICAINE"
   d="m 111.3,200.7 c 0.6,0 1.1,0.5 0.9,1.6 l -2.8,0.6 c 0.4,-1.2 1.3,-2.2 1.9,-2.2 m 1.6,4.6 h -0.6 c -0.7,0.9 -1.5,1.5 -2.2,1.5 -0.7,0 -1.2,-0.5 -1.2,-1.5 0,-0.4 0,-0.9 0.1,-1.2 l 4.6,-1.5 c 0.9,-2.1 -0.1,-3.1 -1.5,-3.1 -2.2,0 -4.7,3.6 -4.7,6.8 0,1.5 0.7,2.2 1.7,2.2 1.5,0 2.7,-1.2 3.8,-3.2 m -1,-6.7 3.2,-3 v -0.4 h -1.7 l -2,3.3 h 0.5 z m -9.8,2.1 h 1.5 l -2.5,6.7 c -0.2,0.6 0.1,1.1 0.6,1.1 1.4,0 3.6,-1.4 4.3,-3.2 h -0.4 c -0.6,0.6 -1.9,1.5 -2.8,1.7 l 2.2,-6.2 h 2.2 l 0.2,-1 h -2.2 l 0.9,-2.3 h -0.9 l -1.6,2.3 -1.9,0.2 v 0.6 h 0.4 z m -2,-0.2 c 0.1,-0.6 -0.2,-1 -0.5,-1 -1.4,0 -2.8,1.2 -3.6,2.8 h 0.4 c 0.4,-0.6 1.1,-1.2 1.9,-1.4 l -2.6,6.6 c -0.2,0.6 0.2,1 0.5,1 1.2,0 2.7,-1.2 3.3,-2.8 h -0.4 c -0.4,0.6 -1.1,1.2 -1.9,1.4 z m 0.4,-3.3 c 0.6,0 1.1,-0.5 1.1,-1.1 0,-0.6 -0.5,-1.1 -1.1,-1.1 -0.6,0 -1.1,0.5 -1.1,1.1 -0.1,0.6 0.4,1.1 1.1,1.1 m -14.6,10.1 c -0.4,0.7 0,1.2 0.7,1.2 0.5,0 0.6,-0.1 0.9,-0.6 l 1.7,-4.7 c 0.9,-1 2.5,-2.1 3.2,-2.1 0.5,0 0.4,0.4 0.1,1 l -2.7,5.2 c -0.2,0.5 0.1,1.1 0.6,1.1 1.4,0 3,-1.2 3.6,-2.8 h -0.4 c -0.4,0.6 -1.1,1.2 -1.9,1.4 l 2.3,-4.7 c 0.2,-0.6 0.5,-1.1 0.5,-1.6 0,-0.7 -0.4,-1.2 -1.2,-1.2 -1.1,0 -2.3,1.2 -3.7,2.8 V 201 c 0,-0.9 -0.2,-1.6 -1.1,-1.6 -0.5,0 -1,0.4 -1.5,1 v 0.1 c 0.9,0 1.2,1.2 0.6,2.6 z m 0,-5.8 c 0.4,-1.1 0.1,-2 -0.7,-2 -1,0 -1.2,0.7 -2.2,2.8 v -1.2 c 0,-0.9 -0.2,-1.6 -1.1,-1.6 -1,0 -1.7,1.5 -2.5,2.8 h 0.4 c 0.5,-0.6 0.9,-1 1.2,-1 0.3,0 0.6,0.6 0,2 l -1.9,4 c -0.4,0.7 0,1.2 0.7,1.2 0.5,0 0.6,-0.1 0.9,-0.6 l 1.7,-4.7 c 0.5,-0.6 1,-1.1 1.5,-1.7 z m -10.3,-0.8 c 0.6,0 1.1,0.5 0.9,1.6 l -2.8,0.6 c 0.4,-1.2 1.3,-2.2 1.9,-2.2 m 1.6,4.6 h -0.6 c -0.7,0.9 -1.5,1.5 -2.2,1.5 -0.7,0 -1.2,-0.5 -1.2,-1.5 0,-0.4 0,-0.9 0.1,-1.2 l 4.6,-1.5 c 0.9,-2.1 -0.1,-3.1 -1.5,-3.1 -2.2,0 -4.7,3.6 -4.7,6.8 0,1.5 0.7,2.2 1.7,2.2 1.5,0 2.7,-1.2 3.8,-3.2 m -10.9,-4.6 h 1.5 l -2.5,6.7 c -0.2,0.6 0.1,1.1 0.6,1.1 1.4,0 3.6,-1.4 4.3,-3.2 h -0.4 c -0.6,0.6 -1.9,1.5 -2.8,1.7 l 2.2,-6.2 h 2.2 l 0.2,-1 h -2.2 l 0.9,-2.3 h -0.6 l -1.6,2.3 -1.9,0.2 v 0.7 z m -8.2,5.2 c 0,-2.1 2.2,-4.8 3.6,-4.8 0.2,0 0.5,0 0.7,0.1 l -1.4,3.6 c -0.7,1 -2,2.1 -2.5,2.1 -0.3,-0.1 -0.4,-0.3 -0.4,-1 m 6.9,-6.8 h -0.7 l -0.7,0.7 h -0.1 c -3.8,0 -7,4.2 -7,7.3 0,0.9 0.5,1.4 1.4,1.4 1,0 2,-1.4 3,-2.8 v 0.5 c -0.1,1.5 0.4,2.3 1.1,2.3 1,0 1.7,-1.5 2.5,-2.8 h -0.4 c -0.5,0.6 -0.9,1 -1.2,1 -0.3,0 -0.6,-0.6 0,-2 z m -8.1,2.4 c 0.4,-1.1 0.1,-2 -0.7,-2 -1,0 -1.2,0.7 -2.2,2.8 v -1.2 c 0,-0.9 -0.2,-1.6 -1.1,-1.6 -1,0 -1.7,1.5 -2.5,2.8 h 0.4 c 0.5,-0.6 0.9,-1 1.2,-1 0.4,0 0.6,0.6 0,2 l -1.9,4 c -0.4,0.7 0,1.2 0.7,1.2 0.5,0 0.6,-0.1 0.9,-0.6 l 1.7,-4.7 c 0.5,-0.6 1,-1.1 1.5,-1.7 z m -12.7,6.7 0.1,-0.5 c -2.2,-0.4 -2.5,-0.4 -1.6,-2.8 l 0.9,-2.5 h 2.5 c 1.1,0 1.1,0.5 1,1.6 h 0.6 l 1.5,-4 h -0.6 c -0.5,1 -1,1.6 -2.2,1.6 H 44 l 1.2,-3.5 c 0.4,-1.1 0.6,-1.4 2.1,-1.4 h 1.1 c 1.5,0 1.7,0.4 1.7,2 h 0.6 l 0.5,-2.7 h -9.1 l -0.1,0.5 c 1.7,0.4 2,0.5 1.1,2.8 l -2,5.4 c -0.9,2.2 -1.2,2.5 -3.2,2.8 l -0.2,0.5 h 6.5 z M 89.1,180 c 0.6,0 1.1,0.5 0.9,1.6 l -2.8,0.6 c 0.4,-1.2 1.3,-2.2 1.9,-2.2 m 1.6,4.6 h -0.6 c -0.7,0.9 -1.5,1.5 -2.2,1.5 -0.7,0 -1.2,-0.5 -1.2,-1.5 0,-0.4 0,-0.9 0.1,-1.2 l 4.6,-1.5 c 0.9,-2.1 -0.1,-3.1 -1.5,-3.1 -2.2,0 -4.7,3.6 -4.7,6.8 0,1.5 0.7,2.2 1.7,2.2 1.4,0 2.7,-1.3 3.8,-3.2 m -0.9,-6.7 3.2,-3 v -0.4 h -1.7 l -2,3.3 h 0.5 z m -10,2.1 h 1.5 l -2.5,6.7 c -0.2,0.6 0.1,1.1 0.6,1.1 1.4,0 3.6,-1.4 4.3,-3.2 h -0.4 c -0.6,0.6 -1.9,1.5 -2.8,1.7 l 2.2,-6.2 H 85 l 0.2,-1 h -1.9 l 0.9,-2.3 h -0.9 l -1.6,2.3 -1.9,0.2 v 0.6 0 z m -2,-0.3 c 0.1,-0.6 -0.2,-1 -0.5,-1 -1.4,0 -2.8,1.2 -3.6,2.8 h 0.4 c 0.4,-0.6 1.1,-1.2 1.9,-1.4 l -2.6,6.6 c -0.2,0.6 0.2,1 0.5,1 1.2,0 2.7,-1.2 3.3,-2.8 h -0.4 c -0.4,0.6 -1.1,1.2 -1.9,1.4 z m 0.4,-3.3 c 0.6,0 1.1,-0.5 1.1,-1.1 0,-0.6 -0.5,-1.1 -1.1,-1.1 -0.6,0 -1.1,0.5 -1.1,1.1 0.1,0.6 0.5,1.1 1.1,1.1 m -8.8,9.9 4.6,-12.1 -0.1,-0.1 -2.8,0.4 v 0.4 l 0.6,0.4 c 0.5,0.4 0.4,0.7 -0.1,2 l -3.6,9.5 c -0.2,0.5 0.1,1.1 0.6,1.1 1.4,0 2.7,-1.2 3.3,-2.8 h -0.4 c -0.5,0.4 -1.3,1.1 -2.1,1.2 m -8.8,-1.1 c 0,-2.1 2.2,-4.8 3.6,-4.8 0.2,0 0.5,0 0.7,0.1 l -1.4,3.6 c -0.7,1 -2,2.1 -2.5,2.1 -0.2,-0.2 -0.4,-0.4 -0.4,-1 m 7,-6.8 h -0.7 l -0.7,0.7 H 66 c -3.8,0 -7,4.2 -7,7.3 0,0.9 0.5,1.4 1.4,1.4 1,0 2,-1.4 3,-2.8 v 0.5 c -0.1,1.5 0.4,2.3 1.1,2.3 1,0 1.7,-1.5 2.5,-2.8 h -0.4 c -0.5,0.6 -0.9,1 -1.2,1 -0.4,0 -0.6,-0.6 0,-2 z m -16.8,11 c 0,-0.9 0.9,-1.5 2.1,-1.9 0.4,0.2 1,0.4 1.7,0.7 1.2,0.4 1.7,0.6 1.7,1 0,0.9 -1.4,1.5 -3.2,1.5 -1.6,-0.2 -2.3,-0.5 -2.3,-1.3 m 3.3,-5.3 c -0.5,0 -0.7,-0.5 -0.7,-1 0,-1.5 0.7,-3.7 2.1,-3.7 0.5,0 0.7,0.5 0.7,1 0,1.4 -0.7,3.7 -2.1,3.7 m 3.7,4.4 c 0,-1.1 -1,-1.5 -2.5,-1.9 -1.4,-0.4 -2,-0.5 -2,-1 0,-0.4 0.2,-0.7 0.9,-1.1 2.2,-0.1 3.6,-2.1 3.6,-3.7 0,-0.4 -0.1,-0.6 -0.1,-0.9 h 1.9 l 0.2,-1 h -3 c -0.4,-0.2 -0.7,-0.4 -1.2,-0.4 -2.3,0 -3.8,2 -3.8,3.7 0,1.2 0.7,2 1.7,2.2 -1.1,0.5 -1.7,1 -1.7,1.7 0,0.4 0.1,0.6 0.5,0.9 -2.5,0.7 -3.5,1.6 -3.5,2.7 0,1.1 1.5,1.6 3.3,1.6 3.1,0.3 5.7,-1.3 5.7,-2.8 m -11.6,-7 c 1.1,0 1.1,0.5 1,1.6 h 0.6 l 1.5,-4 h -0.7 c -0.5,1 -1,1.6 -2.2,1.6 H 44 l 1.2,-3.3 c 0.4,-1.1 0.6,-1.4 2.1,-1.4 h 1.1 c 1.5,0 1.7,0.4 1.7,2 h 0.6 l 0.5,-2.7 h -9.1 l -0.1,0.5 c 1.7,0.4 2,0.5 1.1,2.8 L 41,184 c -0.9,2.2 -1.2,2.5 -3.2,2.8 l -0.1,0.5 h 10.1 l 1.9,-2.8 H 49 c -1.1,1.1 -2.6,2.1 -4.7,2.1 -2.7,0 -2.5,-0.1 -1.6,-2.6 l 1,-2.6 z m 1.3,-7 3.2,-2.2 v -0.4 h -2 l -1.7,2.6 z m 40.6,-15.3 c 0.6,0 1.1,0.5 0.9,1.6 l -2.8,0.6 c 0.3,-1.2 1.1,-2.2 1.9,-2.2 m 1.5,4.6 H 89 c -0.7,0.9 -1.5,1.5 -2.2,1.5 -0.7,0 -1.2,-0.5 -1.2,-1.5 0,-0.5 0,-0.9 0.1,-1.2 l 4.6,-1.5 c 0.9,-2.1 -0.1,-3.1 -1.5,-3.1 -2.2,0 -4.7,3.6 -4.7,6.8 0,1.5 0.7,2.2 1.7,2.2 1.4,0 2.8,-1.2 3.8,-3.2 m -0.9,-6.7 3.2,-3 v -0.4 h -1.7 l -2,3.3 h 0.5 z m -9.5,2.1 h 1.2 l -2.5,6.7 c -0.2,0.6 0.1,1.1 0.6,1.1 1.4,0 3.6,-1.4 4.3,-3.2 h -0.4 c -0.6,0.6 -1.7,1.5 -2.8,1.7 l 2.2,-6.2 H 84 l 0.2,-1 H 82 l 1,-2.3 h -0.9 l -1.6,2.3 -1.6,0.2 v 0.6 h 0.3 z M 78,160 c 0.4,-1.1 0.1,-2 -0.7,-2 -1,0 -1.2,0.7 -2.2,2.8 v -1.2 c 0,-0.9 -0.2,-1.6 -1.1,-1.6 -1,0 -1.7,1.5 -2.5,2.8 h 0.4 c 0.5,-0.6 0.9,-1 1.2,-1 0.4,0 0.6,0.6 0,2 l -1.7,4 c -0.4,0.7 0,1.2 0.7,1.2 0.5,0 0.6,-0.1 0.9,-0.6 l 1.9,-4.6 c 0.5,-0.6 1,-1.1 1.5,-1.7 H 78 Z m -10.2,-0.8 c 0.6,0 1.1,0.5 0.9,1.6 l -2.8,0.6 c 0.4,-1.2 1.2,-2.2 1.9,-2.2 m 1.6,4.6 h -0.6 c -0.7,0.9 -1.5,1.5 -2.2,1.5 -0.7,0 -1.2,-0.5 -1.2,-1.5 0,-0.5 0,-0.9 0.1,-1.2 l 4.6,-1.5 C 71,159 70,158 68.6,158 c -2.2,0 -4.7,3.6 -4.7,6.8 0,1.5 0.7,2.2 1.7,2.2 1.5,0 2.7,-1.2 3.8,-3.2 m -11.3,1.8 c -0.5,0 -1.1,-0.4 -1.1,-0.7 0,-0.1 0.2,-0.6 0.5,-1.2 l 0.7,-2 c 0.7,-1 2,-2 2.7,-2 0.4,0 0.7,0.2 0.7,0.9 0,1.8 -1.7,5 -3.5,5 m 5.3,-5.8 c 0,-1.4 -0.5,-1.9 -1.5,-1.9 -1.1,0 -2.2,1.2 -3.3,2.7 l 2.7,-7.3 -0.1,-0.1 -2.8,0.4 v 0.4 l 0.6,0.4 c 0.5,0.4 0.4,0.9 -0.1,2 l -3,7.7 c -0.2,0.6 -0.5,1.2 -0.5,1.4 0,0.7 1.1,1.5 2.1,1.5 2,0 5.9,-4.1 5.9,-7.2 M 54.3,159 c 0.1,-0.6 -0.2,-1 -0.5,-1 -1.4,0 -2.8,1.2 -3.6,2.8 h 0.4 c 0.4,-0.6 1.1,-1.2 1.9,-1.4 l -2.6,6.6 c -0.2,0.6 0.2,1 0.5,1 1.2,0 2.7,-1.2 3.3,-2.8 h -0.4 c -0.4,0.6 -1.1,1.2 -1.9,1.4 z m 0.4,-3.4 c 0.6,0 1.1,-0.5 1.1,-1.1 0,-0.6 -0.5,-1.1 -1.1,-1.1 -0.6,0 -1.1,0.5 -1.1,1.1 0.1,0.6 0.5,1.1 1.1,1.1 M 48,154.5 h -6 l -0.1,0.5 c 1.7,0.4 2,0.5 1.1,2.8 l -2,5.4 c -0.9,2.2 -1.2,2.5 -3.2,2.8 l -0.1,0.5 h 9.1 l 2,-3.6 h -0.6 c -1.1,1.2 -2.5,2.8 -4.5,2.8 -1.5,0 -1.7,-0.2 -0.9,-2.6 l 2,-5.4 c 0.9,-2.2 1.2,-2.5 3.2,-2.8 z"
   inkscape:connector-curvature="0" />
	<path
   id="Fond_2_"
   class="st0"
   d="m 71.8,64.2 c 0.4,-0.4 0.6,-0.6 1,-1 v 0 c 0.6,-0.7 1.2,-1.4 1.9,-2 0.2,-0.2 0.4,-0.4 0.6,-0.5 0,0 0,-0.1 0.1,-0.2 -0.2,0.1 -0.5,0.4 -0.7,0.5 0,0 -0.1,0 0,-0.1 0.2,-0.1 0.4,-0.2 0.6,-0.5 v 0 c 0,0 0,0 0,-0.1 -0.7,-0.1 -1.4,0.4 -1.9,0.9 -0.1,0 -0.2,0 -0.2,0 -0.9,0.2 -1.5,1 -2.3,1.4 v -0.1 c -0.4,0.1 -0.6,0.4 -1,0.4 -0.5,0.1 -1,0 -1.4,0 -0.7,0.1 -1.4,0.2 -2.1,0.4 v 0 c -0.4,0.1 -0.7,0.2 -1.1,0.4 v 0 c 0,0 0,0.1 -0.1,0.1 -0.1,0.1 -0.2,0.2 -0.4,0.4 -0.4,0.1 -0.6,0.5 -1,0.7 0,0 0,0 -0.1,0 -0.2,0.2 -0.6,0.6 -0.9,0.9 h -0.1 v 0 0 c 0,-0.1 0.1,-0.1 0.1,-0.2 0,-0.1 0.1,-0.1 0.1,-0.2 0.1,-0.1 0.1,-0.2 0.2,-0.4 0,0 0,0 0,-0.1 0,0 0,0 -0.1,0 0.2,-0.2 0.6,-0.5 1,-0.7 v 0 H 63.9 L 64,64.1 v 0 0 c -0.1,0 -0.2,0.1 -0.2,0.2 -0.1,0.1 -0.2,0.4 -0.5,0.4 0,0 0,0 -0.1,0 v 0 0 0 0 0 0 0 c 0,0 0,0 0,-0.1 v 0 c 0,0 0,-0.1 0.1,-0.1 v 0 -0.5 -0.1 c 0.1,-0.1 0.2,-0.2 0.4,-0.4 v 0 c 0.2,-0.1 0.5,-0.2 0.6,-0.4 0,0 0.1,0 0.1,-0.1 -0.4,0.1 -0.6,0.2 -0.9,0.5 h -0.1 -0.1 v 0 c 0,-0.1 0.2,-0.1 0.4,-0.2 h 0.1 c 1.9,-1.4 4.3,-1.1 6.4,-1.9 0.1,-0.1 0.4,-0.2 0.5,-0.4 0.2,-0.1 0.5,-0.4 0.9,-0.6 0.5,-0.4 0.7,-0.7 1,-1.4 v -0.1 c -0.7,0.7 -1.6,1.4 -2.5,1.9 -1.2,0.6 -2.5,0.5 -3.7,0.7 0,-0.1 0.1,-0.1 0.2,-0.1 0,-0.1 0.1,-0.2 0.2,-0.4 H 67 c 0,0 0,-0.1 0.1,-0.1 0.1,0 0.2,0 0.2,0 -0.1,-0.2 -0.5,0.1 -0.7,0 0.1,-0.1 0,-0.2 0.1,-0.4 H 67 c 0,-0.1 0.1,-0.2 0.1,-0.2 0.9,-0.5 1.6,-0.9 2.5,-1.4 -0.1,0 -0.2,0.1 -0.5,0 0.1,0 0,-0.1 0.1,-0.1 0.6,-0.1 1.1,-0.5 1.7,-0.7 -0.2,0 -0.4,0.1 -0.6,0 0.1,0 0.1,-0.1 0.4,-0.1 v -0.1 c 0,0 0,0 0.1,0 h -0.1 c 0,-0.1 0.2,0 0.4,-0.1 H 71 c 0.1,-0.2 0.5,-0.2 0.7,-0.4 0,-0.1 -0.2,0 -0.2,-0.1 0,0 0,0 0.1,0 h -0.1 c -0.1,0 0,-0.1 0,-0.2 0.4,-0.4 0.4,-0.9 0.5,-1.4 h -0.1 c -0.6,0.6 -1.5,0.9 -2.3,1.1 h -0.2 c -0.2,0.1 -0.7,0.1 -1,0 C 68.2,56.7 68,56.6 67.8,56.3 67.3,56.1 66.9,55.8 66.4,55.6 65,55.1 63.6,54.9 62.1,55 c 0.6,-0.4 1.4,-0.4 2,-0.6 1,-0.2 1.9,-0.6 2.8,-0.6 -0.1,0 -0.4,0 -0.6,0 -0.7,0 -1.6,0.1 -2.5,0.4 -0.6,0.1 -1.1,0.4 -1.6,0.5 -0.4,0.1 -0.5,0.5 -0.9,0.4 V 55 c 0.6,-0.7 1.2,-1.4 2.1,-1.4 1,-0.1 2,0 3,0.1 0.7,0 1.4,0.2 2.1,0.4 0.2,0 0.4,0.5 0.6,0.5 0.4,0.1 0.7,0 1,0.2 0,-0.1 0,-0.2 0,-0.4 0.2,-0.2 0.5,0 0.7,0 0.5,-0.2 -0.4,-0.7 -0.6,-1.2 v -0.1 c 0.5,0.4 0.7,0.9 1.4,1.1 0.2,0.1 1,0.2 0.9,0 -0.2,-0.6 -0.9,-1.1 -1.4,-1.7 V 52 C 71,52 71,52 71,51.9 v -0.2 c -0.2,-0.1 -0.1,-0.4 -0.2,-0.5 -0.1,-0.2 0,-0.7 -0.1,-1 -0.1,-0.4 -0.1,-0.6 -0.2,-1 -0.1,-1 -0.4,-1.9 -0.5,-2.7 -0.1,-1.1 0.6,-2 1.1,-2.8 0.4,-0.7 0.9,-1.4 1.6,-1.9 0.1,-0.7 0.6,-1.2 1.1,-1.9 0.5,-0.5 1.2,-0.9 1.7,-1.1 0.7,-0.9 1.4,-1.1 1.4,-1.1 H 88 c 0,0 0,0 0.2,0.1 0.2,0.1 0.6,0.4 0.9,0.5 0.4,0.2 0.9,0.5 1.1,0.9 0.1,0.1 0.2,0.5 0.1,0.7 -0.1,0.2 -0.1,0.7 -0.5,0.9 -0.4,0.1 -0.7,0.1 -1.2,0.1 -0.2,0 -0.5,0 -0.7,-0.1 0.9,0.4 1.6,0.7 2.2,1.5 0,0.1 0.2,0.1 0.5,0.1 v 0.1 c -0.1,0.1 -0.2,0.1 -0.1,0.4 h 0.4 c 0.2,-0.1 0.2,-0.7 0.6,-0.5 0.2,0.1 0.4,0.6 0.2,0.9 -0.2,0.2 -0.5,0.4 -0.7,0.6 0,0.1 0,0.2 0,0.4 0.1,0.2 0.2,0.5 0.2,0.7 0.1,0.4 0.2,0.9 0.4,1.2 0.4,0.9 0.6,1.7 0.5,2.6 0,0.5 -0.2,0.9 0,1.4 0.1,0.5 0.4,0.7 0.6,1.2 0.2,0.4 0.5,0.6 0.6,0.9 0.4,0.6 1,1.1 0.7,1.9 -0.1,0.4 -0.7,0.4 -1.2,0.6 -0.4,0.2 0,0.7 0.1,1 0.2,0.5 -0.4,0.9 -0.7,1 0.1,0.1 0.4,0.1 0.4,0.2 0,0.2 0.4,0.5 0.1,0.7 -0.2,0.4 -0.9,0.5 -0.6,1 0.2,0.4 0.1,0.9 0,1.2 -0.1,0.5 -0.6,0.7 -1,0.9 -0.4,0.1 -0.7,0.1 -1.1,0 -0.1,0 -0.2,-0.1 -0.4,-0.1 -1,-0.1 -2,-0.4 -2.8,-0.4 -0.2,0 -0.6,0.1 -0.7,0.2 -0.2,0.2 -0.5,0.4 -0.7,0.6 v 0 l -0.1,0.1 c 0,0 0,0 -0.1,0.1 v 0 c -0.1,0.2 -0.4,0.4 -0.5,0.6 v 0 c 0,0 0,0 0,0.1 -0.2,0.4 -0.4,0.7 -0.4,1 -0.4,1.4 -0.2,2.5 0,2.7 0.1,0.1 1.9,0.6 3.1,1.2 0.6,0.2 1,0.5 1.4,0.6 H 65.2 c 1.1,-0.7 2.1,-1.1 3.7,-1.9 0.8,-0.1 2.4,-0.9 2.9,-1.4 m -8.7,-4 c -0.1,0 -0.4,0 -0.2,0 0,-0.2 0.5,-0.2 0.7,-0.4 0.1,0 0.2,-0.1 0.4,-0.1 0.1,0.1 0.2,0.1 0.4,0.2 -0.4,0.3 -0.9,0 -1.3,0.3 m -8.8,-1.4 v 0 c 0.7,-1.1 1.2,-2 1.7,-3 0.7,-0.4 1.4,-1 2,-1.6 1,-1 2,-2 3.2,-2.5 0.5,-0.1 1,-0.1 1.5,0 -0.1,0.2 -0.5,0.1 -0.7,0.4 H 61.9 V 52 c -0.6,0.6 -1.4,0.9 -1.9,1.6 -0.4,0.6 -0.6,1.4 -1.4,1.5 -0.2,0 0,-0.1 0,-0.1 -1.5,1.1 -2.8,2.3 -4.3,3.8 m 4.9,-3.7 c 0,0.1 -0.1,0.1 -0.1,0.2 0,0.1 -0.1,0.1 -0.2,0.2 h -0.1 c -0.1,-0.2 0,-0.4 0.4,-0.4 0,-0.1 0,0 0,0 m 2.6,8.5 c 0,0.1 -0.1,0.1 -0.1,0.1 0.1,0 0.1,0 0.1,0.1 -0.1,0.1 -0.2,0.2 -0.4,0.2 0,0 0,0 -0.1,0 -0.1,0.1 -0.1,0.1 -0.2,0.2 -0.1,0 -0.4,0 -0.2,-0.1 0.1,-0.1 0.2,-0.2 0.4,-0.4 0.1,-0.1 0.1,-0.1 0.2,-0.2 l 0.1,-0.1 c -0.1,0.1 0.2,0.1 0.2,0.2 m -1,-0.5 v 0 c -0.2,0.1 -0.5,0.4 -0.6,0.5 -0.2,0.1 -0.5,0.2 -0.7,0.4 v 0 c 0,0 0,0 -0.1,0 -0.2,0.1 -0.4,0.2 -0.6,0.5 0,0 0,0 -0.1,0.1 v 0 0 c 0,0 0,0 -0.1,0.1 v 0 0 l -0.1,0.1 c 0,0 0,0 -0.1,0.1 h -0.1 v 0 h -0.1 c 0,0 0,0 -0.1,0 v 0 0 C 58,64.9 58,65 57.9,65 c -0.1,0.1 -0.2,0.2 -0.4,0.4 v 0 0 0 0 0 0 0 0 0 0 c 0,0 0,0 0,-0.1 v 0 0 c 0,-0.1 0.1,-0.1 0.1,-0.2 v 0 c 0,0 0,0 0,-0.1 l 0.1,-0.1 v 0 c 0.1,-0.1 0.1,-0.1 0.1,-0.2 v 0 0 c 0,0 0,-0.1 0.1,-0.1 0,0 0,-0.1 0.1,-0.1 v 0 0 0 -0.1 0 0 c 0,0 0,0 0,-0.1 v 0 c 0,0 0,0 0,-0.1 v 0 C 58.1,64.1 58.1,64 58.2,64 v 0 c -0.1,0 -0.1,0.1 -0.2,0.1 0,0 -0.1,0 -0.1,-0.1 L 58,63.9 v 0 c 0.1,-0.1 0.1,-0.2 0.2,-0.2 0.1,0 0.1,-0.1 0.1,-0.1 v 0 l 0.1,-0.1 v 0 c 0.5,-0.5 1.5,-0.5 2.2,-0.9 0.2,-0.1 0.6,0 0.9,0 0.1,0 0.4,0 0.5,0.1 -0.4,-0.2 -0.9,0.2 -1.2,0.4 m 1.1,-3.9 c 0,0 0.1,0 0.2,-0.1 h -0.5 c 0,0 0,0 0,-0.1 -0.2,0 -0.6,0.1 -0.9,0.2 -0.4,0.1 -0.7,0.4 -1.2,0.5 -0.6,0.2 -1.1,0.7 -1.9,1 0,0 0,0 0,-0.1 0,-0.1 0.2,-0.2 0.4,-0.4 V 60 c 0.5,-0.6 1.1,-1 1.6,-1.5 v -0.1 c 0.1,-0.2 0.5,-0.4 0.6,-0.6 0,-0.1 0.2,-0.4 0.6,-0.5 0,0 -0.1,0 -0.1,-0.1 -0.2,0 -0.5,0.1 -0.7,0 0.1,-0.1 0.2,-0.1 0.4,-0.2 0,0 -0.1,0 -0.1,-0.1 0,-0.1 0.1,-0.2 0.2,-0.2 0.2,0 0.5,0 0.7,-0.2 -0.4,0 -0.9,0.1 -1.2,-0.1 0.2,-0.7 0.7,-1.4 1.5,-1.7 h 0.1 c 0,0.2 -0.1,0.5 -0.5,0.6 0.5,0.1 0.9,0.1 1.4,0.4 0,0.1 -0.1,0 -0.2,0 0.2,0.1 0.6,0 0.9,0.2 -0.1,0.1 -0.4,0 -0.5,0 1.7,0.5 3.6,0.9 5.1,2.1 -1.2,0.6 -2.6,0.9 -4,1.2 -0.1,0 -0.2,0 -0.5,0 v 0.1 c -0.2,0 -0.4,0 -0.6,0.1 -0.3,-0.1 -0.6,0 -0.8,-0.2"
   inkscape:connector-curvature="0"
   style="fill:#ffffff" />
	<path
   id="Rouge_1_"
   class="st1"
   d="m 71.8,64.2 c 0.4,-0.4 0.6,-0.6 1,-1 v 0 c 0.6,-0.7 1.2,-1.4 1.9,-2 0.2,-0.2 0.4,-0.4 0.6,-0.5 0,0 0,-0.1 0.1,-0.2 -0.2,0.1 -0.5,0.4 -0.7,0.5 0,0 -0.1,0 0,-0.1 0.2,-0.1 0.4,-0.2 0.6,-0.5 v 0 c 0,0 0,0 0,-0.1 -0.7,-0.1 -1.4,0.4 -1.9,0.9 -0.1,0 -0.2,0 -0.2,0 -0.9,0.2 -1.5,1 -2.3,1.4 v -0.1 c -0.4,0.1 -0.6,0.4 -1,0.4 -0.5,0.1 -1,0 -1.4,0 -0.7,0.1 -1.4,0.2 -2.1,0.4 v 0 c -0.4,0.1 -0.7,0.2 -1.1,0.4 v 0 c 0,0 0,0.1 -0.1,0.1 -0.1,0.1 -0.2,0.2 -0.4,0.4 -0.4,0.1 -0.6,0.5 -1,0.7 0,0 0,0 -0.1,0 -0.2,0.2 -0.6,0.6 -0.9,0.9 h -0.1 v 0 0 c 0,-0.1 0.1,-0.1 0.1,-0.2 0,-0.1 0.1,-0.1 0.1,-0.2 0.1,-0.1 0.1,-0.2 0.2,-0.4 0,0 0,0 0,-0.1 0,0 0,0 -0.1,0 0.2,-0.2 0.6,-0.5 1,-0.7 v 0 H 63.9 L 64,64.1 v 0 0 c -0.1,0 -0.2,0.1 -0.2,0.2 -0.1,0.1 -0.2,0.4 -0.5,0.4 0,0 0,0 -0.1,0 v 0 0 0 0 0 0 0 c 0,0 0,0 0,-0.1 v 0 c 0,0 0,-0.1 0.1,-0.1 v 0 -0.5 -0.1 c 0.1,-0.1 0.2,-0.2 0.4,-0.4 v 0 c 0.2,-0.1 0.5,-0.2 0.6,-0.4 0,0 0.1,0 0.1,-0.1 -0.4,0.1 -0.6,0.2 -0.9,0.5 h -0.1 -0.1 v 0 c 0,-0.1 0.2,-0.1 0.4,-0.2 h 0.1 c 1.9,-1.4 4.3,-1.1 6.4,-1.9 0.1,-0.1 0.4,-0.2 0.5,-0.4 0.2,-0.1 0.5,-0.4 0.9,-0.6 0.5,-0.4 0.7,-0.7 1,-1.4 v -0.1 c -0.7,0.7 -1.6,1.4 -2.5,1.9 -1.2,0.6 -2.5,0.5 -3.7,0.7 0,-0.1 0.1,-0.1 0.2,-0.1 0,-0.1 0.1,-0.2 0.2,-0.4 H 67 c 0,0 0,-0.1 0.1,-0.1 0.1,0 0.2,0 0.2,0 -0.1,-0.2 -0.5,0.1 -0.7,0 0.1,-0.1 0,-0.2 0.1,-0.4 H 67 c 0,-0.1 0.1,-0.2 0.1,-0.2 0.9,-0.5 1.6,-0.9 2.5,-1.4 -0.1,0 -0.2,0.1 -0.5,0 0.1,0 0,-0.1 0.1,-0.1 0.6,-0.1 1.1,-0.5 1.7,-0.7 -0.2,0 -0.4,0.1 -0.6,0 0.1,0 0.1,-0.1 0.4,-0.1 v -0.1 c 0,0 0,0 0.1,0 h -0.1 c 0,-0.1 0.2,0 0.4,-0.1 H 71 c 0.1,-0.2 0.5,-0.2 0.7,-0.4 0,-0.1 -0.2,0 -0.2,-0.1 0,0 0,0 0.1,0 h -0.1 c -0.1,0 0,-0.1 0,-0.2 0.4,-0.4 0.4,-0.9 0.5,-1.4 h -0.1 c -0.6,0.6 -1.5,0.9 -2.3,1.1 h -0.2 c -0.2,0.1 -0.7,0.1 -1,0 C 68.2,56.7 68,56.6 67.8,56.3 67.3,56.1 66.9,55.8 66.4,55.6 65,55.1 63.6,54.9 62.1,55 c 0.6,-0.4 1.4,-0.4 2,-0.6 1,-0.2 1.9,-0.6 2.8,-0.6 -0.1,0 -0.4,0 -0.6,0 -0.7,0 -1.6,0.1 -2.5,0.4 -0.6,0.1 -1.1,0.4 -1.6,0.5 -0.4,0.1 -0.5,0.5 -0.9,0.4 V 55 c 0.6,-0.7 1.2,-1.4 2.1,-1.4 1,-0.1 2,0 3,0.1 0.7,0 1.4,0.2 2.1,0.4 0.2,0 0.4,0.5 0.6,0.5 0.4,0.1 0.7,0 1,0.2 0,-0.1 0,-0.2 0,-0.4 0.2,-0.2 0.5,0 0.7,0 0.5,-0.2 -0.4,-0.7 -0.6,-1.2 v -0.1 c 0.5,0.4 0.7,0.9 1.4,1.1 0.2,0.1 1,0.2 0.9,0 -0.2,-0.6 -0.9,-1.1 -1.4,-1.7 V 52 C 71,52 71,52 71,51.9 v -0.2 c -0.2,-0.1 -0.1,-0.4 -0.2,-0.5 -0.1,-0.2 0,-0.7 -0.1,-1 -0.1,-0.4 -0.1,-0.6 -0.2,-1 -0.1,-1 -0.4,-1.9 -0.5,-2.7 -0.1,-1.1 0.6,-2 1.1,-2.8 0.4,-0.7 0.9,-1.4 1.6,-1.9 0.1,-0.7 0.6,-1.2 1.1,-1.9 0.5,-0.5 1.2,-0.9 1.7,-1.1 0.7,-0.9 1.4,-1.1 1.4,-1.1 H 37.7 v 30 h 27.6 c 1.1,-0.7 2.1,-1.1 3.7,-1.9 0.7,-0.3 2.3,-1.1 2.8,-1.6 m -8.7,-4 c -0.1,0 -0.4,0 -0.2,0 0,-0.2 0.5,-0.2 0.7,-0.4 0.1,0 0.2,-0.1 0.4,-0.1 0.1,0.1 0.2,0.1 0.4,0.2 -0.4,0.3 -0.9,0 -1.3,0.3 m -8.6,-1.4 c 0,0 -0.2,0 0,0 0.7,-1.1 1.2,-2 1.7,-3 0.7,-0.4 1.4,-1 2,-1.6 1,-1 2,-2 3.2,-2.5 0.5,-0.1 1,-0.1 1.5,0 -0.1,0.2 -0.5,0.1 -0.7,0.4 H 62 V 52 c -0.6,0.6 -1.4,0.9 -1.9,1.6 -0.4,0.6 -0.6,1.4 -1.4,1.5 -0.2,0 0,-0.1 0,-0.1 -1.6,1.1 -2.9,2.3 -4.2,3.8 m 4.7,-3.7 c 0,0.1 -0.1,0.1 -0.1,0.2 0,0.1 -0.1,0.1 -0.2,0.2 h -0.1 c -0.1,-0.2 0,-0.4 0.4,-0.4 0,-0.1 0,0 0,0 m 2.6,8.5 c 0,0.1 -0.1,0.1 -0.1,0.1 0.1,0 0.1,0 0.1,0.1 -0.1,0.1 -0.2,0.2 -0.4,0.2 0,0 0,0 -0.1,0 -0.1,0.1 -0.1,0.1 -0.2,0.2 -0.1,0 -0.4,0 -0.2,-0.1 0.1,-0.1 0.2,-0.2 0.4,-0.4 0.1,-0.1 0.1,-0.1 0.2,-0.2 l 0.1,-0.1 c -0.1,0.1 0.2,0.1 0.2,0.2 m -1,-0.5 v 0 c -0.2,0.1 -0.5,0.4 -0.6,0.5 -0.2,0.1 -0.5,0.2 -0.7,0.4 v 0 c 0,0 0,0 -0.1,0 -0.2,0.1 -0.4,0.2 -0.6,0.5 0,0 0,0 -0.1,0.1 v 0 0 c 0,0 0,0 -0.1,0.1 v 0 0 l -0.1,0.1 c 0,0 0,0 -0.1,0.1 h -0.1 v 0 h -0.1 c 0,0 0,0 -0.1,0 v 0 0 C 58,64.9 58,65 57.9,65 c -0.1,0.1 -0.2,0.2 -0.4,0.4 v 0 0 0 0 0 0 0 0 0 0 c 0,0 0,0 0,-0.1 v 0 0 c 0,-0.1 0.1,-0.1 0.1,-0.2 v 0 c 0,0 0,0 0,-0.1 l 0.1,-0.1 v 0 c 0.1,-0.1 0.1,-0.1 0.1,-0.2 v 0 0 c 0,0 0,-0.1 0.1,-0.1 0,0 0,-0.1 0.1,-0.1 v 0 0 0 -0.1 0 0 c 0,0 0,0 0,-0.1 v 0 c 0,0 0,0 0,-0.1 v 0 C 58.1,64.1 58.1,64 58.2,64 v 0 c -0.1,0 -0.1,0.1 -0.2,0.1 0,0 -0.1,0 -0.1,-0.1 L 58,63.9 v 0 c 0.1,-0.1 0.1,-0.2 0.2,-0.2 0.1,0 0.1,-0.1 0.1,-0.1 v 0 l 0.1,-0.1 v 0 c 0.5,-0.5 1.5,-0.5 2.2,-0.9 0.2,-0.1 0.6,0 0.9,0 0.1,0 0.4,0 0.5,0.1 -0.4,-0.2 -0.7,0.2 -1.2,0.4 m 1.1,-3.9 c 0,0 0.1,0 0.2,-0.1 h -0.5 c 0,0 0,0 0,-0.1 -0.2,0 -0.6,0.1 -0.9,0.2 -0.4,0.1 -0.7,0.4 -1.2,0.5 -0.6,0.2 -1.1,0.7 -1.9,1 0,0 0,0 0,-0.1 0,-0.1 0.2,-0.2 0.4,-0.4 V 60 c 0.5,-0.6 1.1,-1 1.6,-1.5 v -0.1 c 0.1,-0.2 0.5,-0.4 0.6,-0.6 0,-0.1 0.2,-0.4 0.6,-0.5 0,0 -0.1,0 -0.1,-0.1 -0.2,0 -0.5,0.1 -0.7,0 0.1,-0.1 0.2,-0.1 0.4,-0.2 0,0 -0.1,0 -0.1,-0.1 0,-0.1 0.1,-0.2 0.2,-0.2 0.2,0 0.5,0 0.7,-0.2 -0.4,0 -0.9,0.1 -1.2,-0.1 0.2,-0.7 0.7,-1.4 1.5,-1.7 h 0.1 c 0,0.2 -0.1,0.5 -0.5,0.6 0.5,0.1 0.9,0.1 1.4,0.4 0,0.1 -0.1,0 -0.2,0 0.2,0.1 0.6,0 0.9,0.2 -0.1,0.1 -0.4,0 -0.5,0 1.7,0.5 3.6,0.9 5.1,2.1 -1.2,0.6 -2.6,0.9 -4,1.2 -0.1,0 -0.2,0 -0.5,0 v 0.1 c -0.2,0 -0.4,0 -0.6,0.1 -0.3,-0.1 -0.6,0 -0.8,-0.2"
   inkscape:connector-curvature="0"
   style="fill:#000091" />
	<path
   id="Bleu_1_"
   class="st2"
   d="M 120.4,37.7 H 88 c 0,0 0,0 0.2,0.1 0.2,0.1 0.6,0.4 0.9,0.5 0.4,0.2 0.9,0.5 1.1,0.9 0.1,0.1 0.2,0.5 0.1,0.7 -0.1,0.2 -0.1,0.7 -0.5,0.9 -0.4,0.1 -0.7,0.1 -1.2,0.1 -0.2,0 -0.5,0 -0.7,-0.1 0.9,0.4 1.6,0.7 2.2,1.5 0,0.1 0.2,0.1 0.5,0.1 v 0.1 c -0.1,0.1 -0.2,0.1 -0.1,0.4 h 0.4 c 0.2,-0.1 0.2,-0.7 0.6,-0.5 0.2,0.1 0.4,0.6 0.2,0.9 -0.2,0.2 -0.5,0.4 -0.7,0.6 0,0.1 0,0.2 0,0.4 0.1,0.2 0.2,0.5 0.2,0.7 0.1,0.4 0.2,0.9 0.4,1.2 0.4,0.9 0.6,1.7 0.5,2.6 0,0.5 -0.2,0.9 0,1.4 0.1,0.5 0.4,0.7 0.6,1.2 0.2,0.4 0.5,0.6 0.6,0.9 0.4,0.6 1,1.1 0.7,1.9 -0.1,0.4 -0.7,0.4 -1.2,0.6 -0.4,0.2 0,0.7 0.1,1 0.2,0.5 -0.4,0.9 -0.7,1 0.1,0.1 0.4,0.1 0.4,0.2 0,0.2 0.4,0.5 0.1,0.7 -0.2,0.4 -0.9,0.5 -0.6,1 0.2,0.4 0.1,0.9 0,1.2 -0.1,0.5 -0.6,0.7 -1,0.9 -0.4,0.1 -0.7,0.1 -1.1,0 -0.1,0 -0.2,-0.1 -0.4,-0.1 -1,-0.1 -2,-0.4 -2.8,-0.4 -0.2,0 -0.6,0.1 -0.7,0.2 -0.2,0.2 -0.5,0.4 -0.7,0.6 v 0 l -0.1,0.1 c 0,0 0,0 -0.1,0.1 v 0 c -0.1,0.2 -0.4,0.4 -0.5,0.6 v 0 c 0,0 0,0 0,0.1 -0.2,0.4 -0.4,0.7 -0.4,1 -0.4,1.4 -0.2,2.5 0,2.7 0.1,0.1 1.9,0.6 3.1,1.2 0.6,0.2 1,0.5 1.4,0.6 h 31.8 V 37.7 Z"
   inkscape:connector-curvature="0"
   style="fill:#e1000f" />
	<path
   id="Yeux_1_"
   class="st3"
   d="m 89.9,48.7 c 0.2,0 0.6,0 0.6,0.1 -0.1,0.5 -0.7,0.6 -1.1,1 h -0.1 c -0.1,0.1 -0.1,0.4 -0.2,0.4 -0.1,0 -0.4,0 -0.5,0 0.2,0.2 0.5,0.4 0.9,0.4 0,0 0.1,0.1 0.1,0.2 0,0 0,0 0.1,0 h 0.1 V 51 c -0.1,0.2 -0.5,0.1 -0.7,0.1 0.5,0.1 0.9,0.1 1.4,0 0.4,-0.1 0,-0.7 0.2,-1 -0.1,0 0,-0.1 -0.1,-0.1 0.1,-0.1 0.2,-0.2 0.4,-0.4 0.1,0 0.2,0 0.4,-0.1 0,-0.1 -0.2,-0.1 -0.1,-0.2 0.4,-0.2 0.6,-0.6 0.5,-0.9 0,-0.1 -0.5,-0.1 -0.7,-0.2 -0.2,-0.1 -0.6,0 -1,0 -0.2,0 -0.6,0.1 -0.9,0.2 -0.7,0.1 -1,0.4 -1.4,0.5 0.4,-0.1 0.7,-0.2 1.2,-0.4 0.3,0.2 0.6,0 0.9,0.2"
   inkscape:connector-curvature="0"
   style="fill:#9c9b9b" />
	<path
   id="TEXTE"
   d="M 37.7,105.4 V 83 h 5.7 l 5.4,9.2 5.4,-9.2 H 60 v 22.4 h -4.5 v -16 l -5,8.3 h -3.2 l -5,-8.3 v 15.9 h -4.6 z m 28.8,0 V 83 H 71 v 22.4 z m 11.2,0 V 83 h 5.8 l 10,16 V 83 H 98 v 22.4 h -5.8 l -10,-16.1 v 16.1 z m 26.9,0 V 83 h 4.5 v 22.4 z m 9.2,-3.1 3.3,-3 c 0.7,0.9 1.4,1.5 2.3,2 0.9,0.5 1.8,0.7 2.7,0.7 0.9,0 1.6,-0.2 2.1,-0.7 0.5,-0.5 0.8,-1.1 0.8,-1.9 0,-1 -0.5,-1.8 -1.6,-2.3 -1.1,-0.5 -2.2,-1.1 -3.5,-1.7 -1.3,-0.6 -2.5,-1.4 -3.5,-2.4 -1.1,-1 -1.6,-2.4 -1.6,-4.2 0,-0.9 0.2,-1.7 0.5,-2.5 0.4,-0.8 0.8,-1.5 1.5,-2.1 0.7,-0.6 1.4,-1.1 2.3,-1.4 0.9,-0.3 1.8,-0.5 2.9,-0.5 1.7,0 3.2,0.3 4.5,1 1.3,0.7 2.4,1.6 3.4,2.7 l -3.3,3 c -0.7,-0.9 -1.4,-1.5 -2.1,-2 -0.7,-0.5 -1.5,-0.8 -2.4,-0.8 -0.8,0 -1.4,0.2 -1.9,0.7 -0.5,0.4 -0.7,1 -0.7,1.7 0,1 0.5,1.8 1.6,2.3 1.1,0.5 2.2,1.1 3.5,1.7 1.3,0.6 2.5,1.4 3.5,2.4 1.1,1 1.6,2.4 1.6,4.3 0,1 -0.2,2 -0.6,2.8 -0.4,0.8 -0.9,1.5 -1.6,2.1 -0.7,0.6 -1.4,1 -2.3,1.3 -0.9,0.3 -1.9,0.5 -2.9,0.5 -1.9,0 -3.5,-0.3 -4.8,-1 -1.6,-0.6 -2.8,-1.6 -3.7,-2.7 z M 132.1,87.1 V 83 h 18.4 v 4.1 h -6.9 v 18.3 H 139 V 87.1 Z m 22.7,18.3 V 83 h 13.1 v 3.9 h -8.5 V 92 h 7.2 v 3.9 h -7.2 v 5.6 h 8.5 v 3.9 z m 4.5,-24.3 -4.1,-4.3 h 4.7 l 3.6,4.3 z m 14.2,24.3 V 83 h 6.8 c 2.5,0 4.4,0.6 5.8,1.8 1.4,1.2 2.1,2.8 2.1,4.9 0,1.3 -0.3,2.5 -0.9,3.5 -0.6,1 -1.5,1.8 -2.6,2.3 l 7,9.9 h -5.4 l -6,-9.1 H 178 v 9.1 z m 7.1,-18.5 H 178 v 5.6 h 2.6 c 1,0 1.7,-0.2 2.2,-0.7 0.5,-0.5 0.8,-1.2 0.8,-2.1 0,-0.9 -0.3,-1.5 -0.8,-2 -0.5,-0.6 -1.3,-0.8 -2.2,-0.8 z m 14.3,18.5 V 83 H 208 v 3.9 h -8.5 V 92 h 7.2 v 3.9 h -7.2 v 5.6 h 8.5 v 3.9 z m -157.2,32 V 115 h 8.8 c 1.8,0 3.4,0.3 4.9,0.9 1.5,0.6 2.7,1.4 3.8,2.4 1,1 1.8,2.2 2.4,3.6 0.6,1.4 0.9,2.8 0.9,4.3 0,1.5 -0.3,2.9 -0.9,4.3 -0.6,1.4 -1.4,2.5 -2.4,3.6 -1,1 -2.3,1.8 -3.8,2.4 -1.5,0.6 -3.1,0.9 -4.9,0.9 z m 8.9,-18.3 h -4.3 v 14.1 h 4.3 c 1,0 2,-0.2 2.9,-0.5 0.9,-0.4 1.6,-0.9 2.3,-1.5 0.6,-0.6 1.1,-1.4 1.5,-2.3 0.4,-0.9 0.5,-1.8 0.5,-2.8 0,-1 -0.2,-1.9 -0.5,-2.8 -0.4,-0.9 -0.9,-1.6 -1.5,-2.2 -0.6,-0.6 -1.4,-1.1 -2.3,-1.5 -0.9,-0.3 -1.9,-0.5 -2.9,-0.5 z m 29.7,9.9 v -14 h 4.5 v 13.6 c 0,2.9 -0.8,5.2 -2.4,6.9 -1.6,1.7 -3.8,2.5 -6.6,2.5 -2.8,0 -5,-0.8 -6.6,-2.5 -1.6,-1.7 -2.4,-4 -2.4,-6.9 V 115 h 4.5 v 14 c 0,1.5 0.4,2.7 1.2,3.5 0.8,0.8 1.9,1.3 3.3,1.3 1.4,0 2.5,-0.4 3.3,-1.3 0.8,-0.8 1.2,-2 1.2,-3.5 z m 16.9,-9.9 V 115 h 18.4 v 4.1 h -6.9 v 18.3 h -4.5 v -18.3 z m 22.6,18.3 V 115 h 6.8 c 2.5,0 4.4,0.6 5.8,1.8 1.4,1.2 2.1,2.8 2.1,4.9 0,1.3 -0.3,2.5 -0.9,3.5 -0.6,1 -1.5,1.8 -2.6,2.3 l 7,9.9 h -5.4 l -6,-9.1 h -2.3 v 9.1 z m 7.1,-18.5 h -2.6 v 5.6 h 2.6 c 1,0 1.7,-0.2 2.2,-0.7 0.5,-0.5 0.8,-1.2 0.8,-2.1 0,-0.9 -0.3,-1.5 -0.8,-2 -0.4,-0.6 -1.2,-0.8 -2.2,-0.8 z m 12.5,18.5 8.5,-22.4 h 6 l 8.5,22.4 h -4.8 l -2.1,-5.8 h -9 l -2.1,5.8 z m 8.4,-9.7 h 6.1 l -3.1,-8.4 z M 157.3,115 h 4.8 l 6.6,17.5 6.6,-17.5 h 4.8 l -8.5,22.4 h -6 z m 21.9,22.4 8.5,-22.4 h 6 l 8.5,22.4 h -4.8 l -2.1,-5.8 h -9 l -2.1,5.8 z m 8.4,-9.7 h 6.1 l -3.1,-8.4 z m 18.3,9.7 V 115 h 4.5 v 22.4 z m 11.1,0 V 115 h 4.5 v 18.3 h 8.5 v 4.1 z"
   inkscape:connector-curvature="0" />
</g>
<g
   id="Calque_2"
   transform="translate(-37.7,-37.7)">
</g>
</svg>