<svg xmlns="http://www.w3.org/2000/svg" version="1.1" viewBox="0 0 1024 1280" x="0px" y="0px"><title>checked</title><path d="M685.1 381.9c-7.8-7.8-18.3-12.2-29.3-12.2s-21.5 4.3-29.3 12.2l-173.3 172.4-55.5-55.9c-16-16-42.3-16.2-58.5-0.3-16.3 15.9-16.5 42.2-0.5 58.6l84.8 85.4c7.8 7.8 18.3 12.2 29.4 12.2 11 0 21.4-4.3 29.2-12.1l202.8-201.6c16-16 16.2-42.3 0.3-58.5l-0.1-0.2z"/><path d="M973.9 317c-25.3-59.7-61.5-113.3-107.5-159.4-46.1-46-99.7-82.2-159.4-107.5-61.8-26.2-127.4-39.5-195-39.5-276.4 0.1-501.3 225-501.3 501.4s224.9 501.3 501.3 501.3c276.4 0 501.3-224.9 501.3-501.3 0-67.6-13.2-133.2-39.4-195zM512 930.4c-230.7 0-418.4-187.7-418.4-418.4s187.7-418.4 418.4-418.4 418.4 187.7 418.4 418.4-187.7 418.4-418.4 418.4z"/><text x="0" y="1039" fill="#000000" font-size="5px" font-weight="bold" font-family="'Helvetica Neue', Helvetica, Arial-Unicode, Arial, Sans-serif">Created by shuai tawf</text><text x="0" y="1044" fill="#000000" font-size="5px" font-weight="bold" font-family="'Helvetica Neue', Helvetica, Arial-Unicode, Arial, Sans-serif">from the Noun Project</text></svg>